<?xml version="1.0" encoding="UTF-8" standalone="no"?>
<svg
   viewBox="0 0 32 32"
   version="1.1"
   id="svg40"
   sodipodi:docname="deli.svg"
   inkscape:version="1.2.2 (732a01da63, 2022-12-09)"
   width="32"
   height="32"
   xmlns:inkscape="http://www.inkscape.org/namespaces/inkscape"
   xmlns:sodipodi="http://sodipodi.sourceforge.net/DTD/sodipodi-0.dtd"
   xmlns="http://www.w3.org/2000/svg"
   xmlns:svg="http://www.w3.org/2000/svg"
   xmlns:rdf="http://www.w3.org/1999/02/22-rdf-syntax-ns#"
   xmlns:cc="http://creativecommons.org/ns#"
   xmlns:dc="http://purl.org/dc/elements/1.1/">
  <defs
     id="defs8" />
  <sodipodi:namedview
     id="namedview6"
     pagecolor="#ffffff"
     bordercolor="#666666"
     borderopacity="1.0"
     inkscape:showpageshadow="2"
     inkscape:pageopacity="0.0"
     inkscape:pagecheckerboard="0"
     inkscape:deskcolor="#d1d1d1"
     showgrid="false"
     inkscape:zoom="15.816667"
     inkscape:cx="9.483667"
     inkscape:cy="15.553214"
     inkscape:window-width="1920"
     inkscape:window-height="1129"
     inkscape:window-x="-8"
     inkscape:window-y="-8"
     inkscape:window-maximized="1"
     inkscape:current-layer="svg40" />
  <metadata
     id="metadata44">
    <rdf:RDF>
      <cc:Work
         rdf:about="">
        <dc:format>image/svg+xml</dc:format>
        <dc:type
           rdf:resource="http://purl.org/dc/dcmitype/StillImage" />
      </cc:Work>
    </rdf:RDF>
  </metadata>
  <path
     fill="currentColor"
     d="m 8.6085271,3.022387 c 0,-1.0073085 0.8237184,-1.8211226 1.8432859,-1.8211226 h 11.059713 c 1.019568,0 1.843284,0.8138141 1.843284,1.8211226 0,1.0073083 -0.823716,1.8211225 -1.843284,1.8211225 H 10.451813 c -1.0195675,0 -1.8432859,-0.8138142 -1.8432859,-1.8211225 z m -1.8432856,7.284489 c 0,-2.0089249 1.6531969,-3.6422439 3.6865715,-3.6422439 h 11.059713 c 2.033375,0 3.68657,1.633319 3.68657,3.6422439 v 16.390103 c 0,2.008925 -1.653195,3.642245 -3.68657,3.642245 H 10.451813 c -2.0333746,0 -3.6865715,-1.63332 -3.6865715,-3.642245 z m 5.5298565,3.642246 c -1.019568,0 -1.843285,0.813815 -1.843285,1.821123 v 5.463366 c 0,1.007309 0.823717,1.821124 1.843285,1.821124 h 7.373142 c 1.019567,0 1.843286,-0.813815 1.843286,-1.821124 v -5.463366 c 0,-1.007308 -0.823719,-1.821123 -1.843286,-1.821123 z"
     id="path3"
     style="stroke-width:0.0572554" />
</svg>
